<?xml version="1.0" encoding="UTF-8"?>
<svg version="1.1" xmlns="http://www.w3.org/2000/svg" width="1024" height="1024">
<path d="M0 0 C337.92 0 675.84 0 1024 0 C1024 337.92 1024 675.84 1024 1024 C686.08 1024 348.16 1024 0 1024 C0 686.08 0 348.16 0 0 Z " fill="#FDFDFD" transform="translate(0,0)"/>
<path d="M0 0 C5.39742892 0.00457966 10.79484558 -0.00248613 16.19227195 -0.00795984 C26.72921455 -0.01679669 37.26612846 -0.01495771 47.80307212 -0.00913456 C56.37348923 -0.00459638 64.94389836 -0.00401443 73.51431632 -0.00618219 C75.35205799 -0.00664189 75.35205799 -0.00664189 77.22692575 -0.00711088 C79.71666477 -0.0077504 82.2064038 -0.00839883 84.69614282 -0.00905606 C107.97455487 -0.01474238 131.25295109 -0.00822773 154.53136054 0.00254467 C174.46331674 0.01148312 194.39524964 0.0099224 214.32720542 0.00070715 C237.53513392 -0.01001785 260.7430486 -0.01419791 283.95097923 -0.00806832 C286.42974337 -0.00743129 288.9085075 -0.00680255 291.38727164 -0.00618219 C293.21616723 -0.00571937 293.21616723 -0.00571937 295.08201019 -0.00524719 C303.63454764 -0.00352727 312.18707626 -0.00642003 320.73961234 -0.0111413 C331.1727635 -0.01677478 341.60588461 -0.01518193 352.03903237 -0.00457981 C357.35220446 0.00064317 362.6653266 0.00279177 367.97849822 -0.00387812 C421.62964759 -0.06544247 421.62964759 -0.06544247 444.68316245 6.26144934 C445.40390952 6.45690344 446.12465659 6.65235754 446.86724448 6.85373449 C483.96837405 17.24535232 515.8003104 42.95702238 534.83990073 76.28635168 C537.32304274 80.85369743 539.54770731 85.52318355 541.68316245 90.26144934 C542.22714683 91.44996496 542.7711312 92.63848059 543.33159995 93.86301184 C556.00878179 123.400202 556.14215933 155.58036765 556.06067741 187.15052879 C556.05171081 191.92288726 556.06031421 196.6952219 556.06653953 201.46758032 C556.07595743 210.78078412 556.06949006 220.09390963 556.05727658 229.40710755 C556.04355559 240.28075048 556.04530324 251.15437544 556.04740991 262.02802483 C556.05058946 281.44333265 556.03899099 300.85860362 556.01934409 320.27390051 C556.00033654 339.0626489 555.99325993 357.85135413 555.99883628 376.64011145 C556.00490945 397.16317328 556.00468951 417.68621622 555.99335045 438.2092765 C555.99214331 440.40215178 555.99093733 442.59502707 555.9897325 444.78790236 C555.9888272 446.40578598 555.9888272 446.40578598 555.9879036 448.05635413 C555.98404314 455.61501363 555.98441074 463.17366603 555.98631835 470.73232603 C555.98845187 479.95594895 555.98312914 489.17953432 555.9687048 498.40314671 C555.96151745 503.09860538 555.95733473 507.79400967 555.96194816 512.48947287 C556.00257316 559.61644649 556.00257316 559.61644649 551.43316245 579.07394934 C551.21700278 580.0227799 551.00084311 580.97161047 550.77813315 581.94919348 C544.03620223 610.48162201 529.93557662 635.97247794 508.68316245 656.26144934 C507.92003745 657.04519934 507.15691245 657.82894934 506.37066245 658.63644934 C505.48378745 659.50269934 504.59691245 660.36894934 503.68316245 661.26144934 C503.05667808 661.89566809 502.4301937 662.52988684 501.78472495 663.18332434 C473.23938779 690.65699355 432.81242123 699.43014181 394.58704734 699.39516211 C392.64617539 699.39703224 390.70530382 699.39933375 388.76443285 699.40202743 C383.45002994 699.40812679 378.13564281 699.40801403 372.82123721 699.40683305 C367.08214547 699.40662857 361.34305873 699.41215229 355.60396934 699.41689062 C344.36714663 699.42518747 333.13032916 699.42794502 321.89350364 699.428503 C312.75726964 699.42897861 303.62103737 699.43103561 294.48480392 699.43420362 C272.78199901 699.44157569 251.07919557 699.44772873 229.37638927 699.44720507 C228.68289175 699.44718949 227.98939424 699.44717391 227.27488165 699.44715786 C223.76025344 699.44707476 220.24562522 699.44697572 216.730997 699.44687315 C216.03302732 699.44685321 215.33505763 699.44683326 214.61593735 699.44681271 C213.20447347 699.44677227 211.7930096 699.44673048 210.38154573 699.44668732 C188.42730913 699.44607473 166.47308799 699.45357946 144.51885581 699.46725988 C119.83114426 699.48263743 95.14344324 699.49121244 70.45572656 699.49029666 C57.39244561 699.48996498 44.32918209 699.49269951 31.26590514 699.50347471 C20.14345158 699.51259044 9.02102334 699.51474613 -2.10143235 699.50796529 C-7.77222986 699.50470554 -13.44297881 699.50462371 -19.11377168 699.51331854 C-24.31327126 699.52120851 -29.51268396 699.51972668 -34.71218149 699.51103441 C-36.58493828 699.50950491 -38.45770163 699.51129463 -40.33045068 699.51689448 C-79.73600587 699.62684325 -117.20160403 688.37948746 -147.31683755 662.26144934 C-148.20242349 661.5099259 -149.08800942 660.75840246 -150.0004313 659.98410559 C-154.67887369 655.94794546 -154.67887369 655.94794546 -156.31683755 654.26144934 C-156.31683755 653.60144934 -156.31683755 652.94144934 -156.31683755 652.26144934 C-157.21656289 651.8701383 -157.21656289 651.8701383 -158.1344645 651.47092199 C-160.47255928 650.17514825 -161.60450625 649.00683177 -163.2348063 646.90988684 C-163.76251626 646.2317594 -164.29022622 645.55363195 -164.83392739 644.8549552 C-165.66078042 643.7567948 -165.66078042 643.7567948 -166.50433755 642.63644934 C-167.07877603 641.87662756 -167.6532145 641.11680578 -168.24506021 640.3339591 C-173.67342229 633.01044797 -178.24958581 625.41218125 -182.31683755 617.26144934 C-182.63346353 616.62948645 -182.9500895 615.99752356 -183.27631021 615.34641027 C-199.57127024 582.14383374 -200.6284066 546.17231093 -200.59294593 509.98201609 C-200.59045511 505.21021253 -200.59952179 500.43842768 -200.60698342 495.66663122 C-200.61966758 486.34340215 -200.62153201 477.02020197 -200.61918316 467.69696572 C-200.61739279 460.11088001 -200.61916498 452.524803 -200.6234076 444.93871832 C-200.62400279 443.85486514 -200.62459798 442.77101196 -200.62521121 441.65431474 C-200.62642308 439.45174497 -200.62763722 437.2491752 -200.62885358 435.04660544 C-200.63970489 414.43733042 -200.63757806 393.8280718 -200.63146874 373.21879587 C-200.62630161 354.41220172 -200.63755396 335.60565941 -200.65656696 316.79907551 C-200.67599232 297.43442907 -200.68419315 278.06980708 -200.6804437 258.70515084 C-200.67853879 247.85503622 -200.68094959 237.00496568 -200.69515824 226.15485907 C-200.7071331 216.91798956 -200.70840904 207.6811913 -200.69636808 198.44432071 C-200.69052195 193.7425435 -200.68925999 189.0408962 -200.70137048 184.33912802 C-200.82386538 133.2087768 -193.8048924 86.74402809 -157.31683755 48.26144934 C-156.87501138 47.78707434 -156.43318521 47.31269934 -155.97797036 46.82394934 C-114.31074427 2.28612104 -57.13383987 -0.07190341 0 0 Z " fill="#E0F2FD" transform="translate(334.3168375492096,161.73855066299438)"/>
<path d="M0 0 C1.36749832 -0.00571092 2.73499189 -0.01267796 4.10247803 -0.02079773 C7.7967079 -0.0386629 11.4906994 -0.03757362 15.18495941 -0.03185534 C18.27637232 -0.02875442 21.36774004 -0.03486582 24.4591465 -0.04089409 C31.75470399 -0.05491532 39.05014432 -0.05339756 46.34570312 -0.04199219 C53.85756986 -0.03050776 61.3690797 -0.04459736 68.88089943 -0.07138866 C75.34570126 -0.09357744 81.81039131 -0.10017607 88.2752285 -0.09431225 C92.12971934 -0.09094971 95.98398134 -0.09331091 99.83843994 -0.11056328 C103.46329953 -0.12608179 107.08763188 -0.12202334 110.71247101 -0.10325813 C112.66702608 -0.09784285 114.6216051 -0.11204817 116.57611084 -0.12695312 C126.09215125 -0.04747237 132.06477779 1.79845728 139.04711914 8.34667969 C139.89299591 9.13732819 140.73887268 9.92797668 141.61038208 10.74258423 C146.94587722 15.89356521 152.23584301 21.08635779 157.48828125 26.32202148 C158.39564372 27.22514289 158.39564372 27.22514289 159.32133675 28.14650917 C162.51108602 31.32140258 165.69805638 34.49905295 168.88256836 37.67919922 C172.15966784 40.95077636 175.44597687 44.21293999 178.73443508 47.47309399 C181.27796549 49.99799072 183.81475338 52.52958032 186.34974861 55.06304359 C187.55887474 56.26915375 188.77048887 57.47277525 189.98467827 58.67378807 C191.67852941 60.35053355 193.36260699 62.03654568 195.04467773 63.72509766 C195.54182281 64.21302795 196.0389679 64.70095825 196.55117798 65.20367432 C201.31664147 70.02672429 203.68654741 74.34510789 203.77774191 81.21416599 C203.77241398 81.94539383 203.76708606 82.67662167 203.76159668 83.43000793 C203.76768778 84.22099355 203.77377889 85.01197916 203.78005457 85.82693404 C203.79665841 88.46842892 203.79191254 91.10944037 203.78710938 93.75097656 C203.7944513 95.64856974 203.80303789 97.54615845 203.81277466 99.44374084 C203.83498815 104.59262553 203.83792136 109.74135017 203.83602715 114.89027619 C203.83590742 119.19184656 203.84447259 123.49338305 203.85280466 127.79494399 C203.87203874 137.94600128 203.87492277 148.09697635 203.86816406 158.24804688 C203.86152544 168.71138022 203.88438057 179.17436084 203.92147779 189.63762265 C203.95219369 198.62806408 203.96353269 207.61839216 203.95964098 216.60888499 C203.95757518 221.97531964 203.96302664 227.3414799 203.98753357 232.70786476 C204.00982878 237.75675432 204.0078996 242.80507146 203.98760605 247.85396385 C203.98420076 249.70302146 203.98926432 251.5521178 204.00358963 253.40112305 C204.07838553 263.77410117 204.03269285 272.05628551 196.81002045 280.14873981 C190.40212147 286.31998106 182.45322977 287.86195386 173.82188416 287.79173279 C172.60600116 287.79981109 172.60600116 287.79981109 171.36555487 287.8080526 C168.67575468 287.82224918 165.98645241 287.81524927 163.29663086 287.80810547 C161.35756538 287.81381328 159.41850327 287.82077913 157.47944641 287.8289032 C152.23162698 287.84680142 146.98397505 287.84567283 141.73613429 287.83996081 C137.34982021 287.83686504 132.96353813 287.84296554 128.57722861 287.84899956 C118.22911152 287.86303137 107.88107701 287.86149384 97.53295898 287.85009766 C86.86566443 287.83860943 76.19862108 287.85270709 65.53135961 287.87949413 C56.36168428 287.90165634 47.19208778 287.90828757 38.02238756 287.90241772 C32.55044158 287.89904922 27.07865673 287.90145665 21.60673332 287.91866875 C16.46265801 287.9341447 11.31895498 287.93017495 6.17489433 287.9113636 C4.28994314 287.90767998 2.40496432 287.91077957 0.5200386 287.92124939 C-2.05856579 287.93447628 -4.6359406 287.92289752 -7.2144928 287.90525818 C-7.95545875 287.91486319 -8.6964247 287.92446819 -9.45984417 287.93436426 C-17.06267779 287.82778315 -23.09691161 284.54635583 -28.6328125 279.40405273 C-37.01113113 269.12654537 -35.47247388 255.99744742 -35.39331055 243.52661133 C-35.3998109 241.10759189 -35.40887701 238.68857821 -35.42030334 236.26957703 C-35.44092474 230.40424273 -35.43372062 224.53934563 -35.41280248 218.67404936 C-35.39646158 213.9046496 -35.39233276 209.13537989 -35.39676857 204.36595535 C-35.39739925 203.68495423 -35.39802992 203.00395312 -35.39867971 202.3023156 C-35.40002587 200.91853229 -35.40140545 199.53474901 -35.40281806 198.15096577 C-35.41472893 185.20333449 -35.39075435 172.25596492 -35.35379998 159.3083932 C-35.32289688 148.21518718 -35.32054581 137.1222819 -35.33959961 126.02905273 C-35.36174358 113.12199308 -35.36782822 100.2151017 -35.34727699 87.30803359 C-35.34511422 85.93019527 -35.34296512 84.55235694 -35.34082985 83.17451859 C-35.33976348 82.49673032 -35.33869712 81.81894206 -35.33759844 81.12061476 C-35.33114716 76.35969963 -35.33587461 71.59887157 -35.34485435 66.8379631 C-35.35652888 60.42407383 -35.34122676 54.01058218 -35.30811119 47.59676552 C-35.29992014 45.24663631 -35.30016887 42.89645982 -35.30958939 40.54633522 C-35.32105927 37.33129332 -35.30156812 34.11783944 -35.27445984 30.90292358 C-35.28493133 29.97917321 -35.29540282 29.05542283 -35.30619162 28.10368001 C-35.18658707 20.45808975 -32.86946229 13.9640898 -27.67242831 8.24779832 C-19.45294027 0.34282459 -10.91145519 -0.03874474 0 0 Z " fill="#6CB1EC" transform="translate(427.6328125,209.595947265625)"/>
<path d="M0 0 C7.26 0 14.52 0 22 0 C22.65484375 1.55203125 23.3096875 3.1040625 23.984375 4.703125 C30.93401944 21.159492 37.94861717 37.58701042 45 54 C46.61701732 51.57447401 47.75125276 49.48001477 48.90771484 46.83911133 C49.2750473 46.00426712 49.64237976 45.16942291 50.02084351 44.3092804 C50.41357452 43.40928818 50.80630554 42.50929596 51.2109375 41.58203125 C51.62034576 40.65081955 52.02975403 39.71960785 52.4515686 38.76017761 C53.76206982 35.77879125 55.0688598 32.79579923 56.375 29.8125 C57.67427316 26.84717668 58.97441066 23.88224541 60.27700806 20.91838074 C61.08710006 19.07495186 61.8952923 17.23068657 62.70126343 15.38545227 C63.07490021 14.53484726 63.44853699 13.68424225 63.83349609 12.80786133 C64.1561142 12.07078445 64.4787323 11.33370758 64.81112671 10.57429504 C66.45730218 7.00979292 68.24412022 3.51175957 70 0 C76.93 0 83.86 0 91 0 C91 26.73 91 53.46 91 81 C85.39 81 79.78 81 74 81 C73.67 64.83 73.34 48.66 73 32 C62.3787934 56.44835538 62.3787934 56.44835538 52 81 C48.04 81 44.08 81 40 81 C34.75177364 69.96429689 29.84667033 58.80629152 25.0625 47.5625 C22.731875 42.096875 20.40125 36.63125 18 31 C17.67 47.5 17.34 64 17 81 C11.39 81 5.78 81 0 81 C0 54.27 0 27.54 0 0 Z " fill="#02223A" transform="translate(575,543)"/>
<path d="M0 0 C5.89085918 4.15998904 9.27735953 9.13194271 12.46484375 15.52734375 C12.80515625 16.12804687 13.14546875 16.72875 13.49609375 17.34765625 C17.2450817 25.08862211 16.59657509 35.74345525 14.65625 43.9453125 C11.22010579 53.13610653 5.18824635 60.87395792 -3.53515625 65.52734375 C-14.5032013 70.32480395 -24.39637055 70.88273474 -35.671875 66.78515625 C-45.58610006 62.42993051 -51.7263463 54.54146749 -55.7890625 44.6796875 C-58.98808244 35.45110119 -58.53356423 24.01153345 -54.4296875 15.13671875 C-49.43547468 5.85516631 -43.28889129 -0.41567522 -33.34765625 -4.34765625 C-22.03613915 -7.63863771 -10.09629375 -5.86487326 0 0 Z " fill="#032139" transform="translate(733.53515625,760.47265625)"/>
<path d="M0 0 C6.48425736 -0.61754832 10.17928456 -0.08620275 15.42706299 3.80517578 C21.3639356 8.86957951 26.83581637 14.4085573 32.3359375 19.9375 C33.70550569 21.305044 35.07551868 22.67214268 36.44595337 24.03881836 C39.30333949 26.89180192 42.15528029 29.75008923 45.00341797 32.61230469 C48.64815532 36.27418126 52.30626351 39.92235748 55.96852684 43.56669617 C58.79469729 46.38201449 61.61366952 49.20445314 64.43053055 52.02908325 C65.77669969 53.3772479 67.1250851 54.72320345 68.47574997 56.06686401 C70.36148039 57.94495126 72.23728758 59.83243031 74.11083984 61.72265625 C74.6656604 62.27140411 75.22048096 62.82015198 75.79211426 63.38552856 C79.66804919 67.32540397 82.69126053 71.07726638 83.29296875 76.7734375 C83.24076172 78.06121094 83.24076172 78.06121094 83.1875 79.375 C83.14689453 80.68597656 83.14689453 80.68597656 83.10546875 82.0234375 C83.07066406 82.67570312 83.03585937 83.32796875 83 84 C74.81093115 84.09303902 66.62208636 84.16393536 58.43261814 84.20724869 C54.62912268 84.22804618 50.82599115 84.25621807 47.02270508 84.30175781 C43.34628199 84.34549865 39.67020702 84.36919592 35.99354362 84.37950897 C34.59700993 84.38685014 33.20049341 84.40118483 31.80410957 84.42292023 C22.56603682 84.56088224 15.0282306 84.133376 7.6953125 78.10546875 C7.17710937 77.47253906 6.65890625 76.83960938 6.125 76.1875 C5.32449219 75.24970703 5.32449219 75.24970703 4.5078125 74.29296875 C-0.67402902 66.41281079 -0.39822755 59.33006918 -0.29296875 50.09765625 C-0.287366 48.65034934 -0.28309911 47.2030367 -0.28010559 45.75572205 C-0.26871009 41.96625768 -0.23928949 38.17714416 -0.20599365 34.38781738 C-0.17517775 30.51315048 -0.16157577 26.63842629 -0.14648438 22.76367188 C-0.11441388 15.17562217 -0.06328279 7.58786045 0 0 Z " fill="#2484D1" transform="translate(548,211)"/>
<path d="M0 0 C45.95907928 0 45.95907928 0 54 8 C60.21310703 16.24648751 60.72351093 23.92252628 60 34 C58.06813991 42.27441281 52.79426665 46.4704889 46 51 C46.71285156 52.09957031 47.42570312 53.19914063 48.16015625 54.33203125 C50.64009093 58.15874855 53.1149609 61.98871951 55.58886719 65.81933594 C56.81780951 67.7184558 58.05214334 69.61388479 59.2890625 71.5078125 C59.91554688 72.47460938 60.54203125 73.44140625 61.1875 74.4375 C61.73792969 75.28183594 62.28835938 76.12617187 62.85546875 76.99609375 C64 79 64 79 64 81 C57.42179219 82.26879379 50.42266867 83.34585505 44 81 C38.80454432 76.29840421 36.12250286 69.6804745 33.17626953 63.44873047 C31.36580469 59.679747 29.94361063 57.05005552 27 54 C23.7 53.67 20.4 53.34 17 53 C17 62.24 17 71.48 17 81 C11.39 81 5.78 81 0 81 C0 54.27 0 27.54 0 0 Z " fill="#012039" transform="translate(287,543)"/>
<path d="M0 0 C3.62642656 2.68266391 5.45437811 4.96389224 6.15625 9.47265625 C6.5405823 13.71568487 5.14127181 16.31986248 3.03125 19.97265625 C0.88094587 22.54035099 -1.47437462 24.87832934 -3.85522461 27.23144531 C-4.5514946 27.93136597 -5.24776459 28.63128662 -5.96513367 29.35241699 C-8.2597932 31.65515742 -10.56509754 33.94689793 -12.87109375 36.23828125 C-14.4719925 37.83866119 -16.07237275 39.43955994 -17.67225647 41.04095459 C-21.02249187 44.39110038 -24.37782625 47.73602657 -27.73706055 51.07714844 C-32.044262 55.36163591 -36.34027409 59.65713702 -40.63275814 63.95636368 C-43.93430612 67.26125117 -47.24081824 70.5611344 -50.5489521 73.85942841 C-52.1351296 75.4417554 -53.71995924 77.02543471 -55.30341911 78.61048126 C-57.51501491 80.82244751 -59.73298979 83.02780832 -61.95288086 85.23144531 C-62.60703979 85.88808167 -63.26119873 86.54471802 -63.93518066 87.22125244 C-64.84565407 88.12109863 -64.84565407 88.12109863 -65.77452087 89.03912354 C-66.29789001 89.5604398 -66.82125914 90.08175606 -67.36048794 90.61886978 C-70.0639946 92.8946001 -72.34237735 93.89095547 -75.84375 94.34765625 C-82.6726216 93.52819166 -87.40760707 87.8297679 -92.046875 83.16015625 C-92.69952332 82.50942139 -93.35217163 81.85868652 -94.02459717 81.18823242 C-95.39515867 79.81902551 -96.76322345 78.44731529 -98.12890625 77.07324219 C-100.21914752 74.97225669 -102.31988949 72.88219711 -104.421875 70.79296875 C-105.75585037 69.45767234 -107.0892055 68.12175596 -108.421875 66.78515625 C-109.36247772 65.85062622 -109.36247772 65.85062622 -110.32208252 64.8972168 C-110.90318787 64.30980713 -111.48429321 63.72239746 -112.08300781 63.1171875 C-112.59341614 62.60518799 -113.10382446 62.09318848 -113.62969971 61.56567383 C-116.11429937 58.60983941 -116.93032057 56.39537996 -117.28125 52.53515625 C-116.94301877 48.67932028 -116.37853135 46.96410897 -113.96875 43.97265625 C-110.6229933 41.20045784 -107.43170078 40.22545612 -103.046875 40.4609375 C-98.67331559 41.5378854 -96.03121584 44.83830154 -92.96875 47.97265625 C-91.6903584 49.24245419 -90.41025212 50.51052701 -89.12890625 51.77734375 C-85.38691075 55.48756384 -81.67129805 59.2231032 -77.96875 62.97265625 C-73.85054082 61.34904005 -71.12069831 58.37108838 -68.08618164 55.26953125 C-67.50841476 54.68723755 -66.93064789 54.10494385 -66.33537292 53.50500488 C-65.08368227 52.24237074 -63.83427532 50.97746949 -62.58690071 49.71057129 C-60.61178842 47.70527684 -58.6300558 45.7067496 -56.64634705 43.70996094 C-51.00834616 38.03222138 -45.38312023 32.34188437 -39.76098633 26.6484375 C-36.31974223 23.16447339 -32.87121447 19.68785263 -29.41830254 16.2154541 C-28.10488309 14.8914699 -26.7943869 13.56457907 -25.48689461 12.23474121 C-23.65826654 10.37490895 -21.82059461 8.52447159 -19.98071289 6.67578125 C-19.17553726 5.84971375 -19.17553726 5.84971375 -18.35409546 5.00695801 C-13.35947964 0.0245209 -6.97971788 -3.64219405 0 0 Z " fill="#E1F2FD" transform="translate(564.96875,341.02734375)"/>
<path d="M0 0 C40.16981132 0 40.16981132 0 49 7.3125 C54.13244192 13.13419071 55.525625 18.65679335 55.28515625 26.2890625 C54.5637749 33.14712626 51.90573086 38.20835591 47 43 C45.02117487 43.72711454 43.02194179 44.40317856 41 45 C42.53990275 47.48027814 44.08150765 49.95945625 45.625 52.4375 C46.0792334 53.16727051 46.5334668 53.89704102 47.00146484 54.64892578 C49.91093928 59.30636033 52.89274381 63.89624666 56.0390625 68.3984375 C57 70 57 70 57 72 C51.00279192 73.13946954 44.85368906 74.20926384 39 72 C32.16010179 65.89223166 28.27959821 56.39469552 25 48 C22.03 48 19.06 48 16 48 C16 55.92 16 63.84 16 72 C10.72 72 5.44 72 0 72 C0 48.24 0 24.48 0 0 Z " fill="#022038" transform="translate(404,756)"/>
<path d="M0 0 C40.16981132 0 40.16981132 0 49 7.3125 C54.13244192 13.13419071 55.525625 18.65679335 55.28515625 26.2890625 C54.5637749 33.14712626 51.90573086 38.20835591 47 43 C45.02117487 43.72711454 43.02194179 44.40317856 41 45 C41.37286133 45.56920166 41.74572266 46.13840332 42.12988281 46.72485352 C43.83867735 49.33604218 45.54435762 51.94925135 47.25 54.5625 C47.83652344 55.45775391 48.42304687 56.35300781 49.02734375 57.27539062 C52.17743777 62.1067146 55.20413207 66.9549809 58 72 C42.11411077 73.51294183 42.11411077 73.51294183 37.52734375 70.23046875 C35.71015651 67.57127513 34.34810727 64.92583721 33 62 C32.06146416 60.22151402 31.12148868 58.44299801 30.12548828 56.69604492 C29.17008533 55.01674588 28.27473844 53.30370145 27.3828125 51.58984375 C24.56108251 47.9541162 24.56108251 47.9541162 16 48 C16 55.92 16 63.84 16 72 C10.72 72 5.44 72 0 72 C0 48.24 0 24.48 0 0 Z " fill="#012039" transform="translate(759,756)"/>
<path d="M0 0 C5.61 0 11.22 0 17 0 C17.495 15.345 17.495 15.345 18 31 C20.97 27.37 23.94 23.74 27 20 C28.88919206 17.74353172 30.78084157 15.49141525 32.6875 13.25 C33.12126953 12.73824219 33.55503906 12.22648438 34.00195312 11.69921875 C34.87971663 10.66457284 35.76609939 9.6371748 36.66113281 8.61743164 C38.0528098 6.99360557 38.0528098 6.99360557 39.28417969 5.06811523 C41.38739677 2.09906628 42.80376247 0.27087781 46.44311523 -0.55322266 C49.28581899 -0.68864988 52.03483951 -0.61260475 54.875 -0.4375 C56.33679688 -0.39012695 56.33679688 -0.39012695 57.828125 -0.34179688 C60.22188977 -0.25965789 62.60935168 -0.14491673 65 0 C63.09685709 4.08005196 60.3917041 7.20613616 57.4375 10.5625 C56.35056797 11.81293829 55.26464079 13.0642507 54.1796875 14.31640625 C53.64182617 14.93660645 53.10396484 15.55680664 52.54980469 16.19580078 C49.60459976 19.62444987 46.76400826 23.13650711 43.9140625 26.64453125 C41.63380496 29.4506441 39.32208587 32.22847815 37 35 C38.64000335 40.27744669 41.96723431 44.2746141 45.25 48.625 C46.50913147 50.31509159 47.76824551 52.00519615 49.02734375 53.6953125 C50.35144866 55.46362691 51.67566901 57.23185489 53 59 C55.61044419 62.49537273 58.21308975 65.99641761 60.8125 69.5 C61.41674805 70.30646973 62.02099609 71.11293945 62.64355469 71.94384766 C63.47935059 73.06992432 63.47935059 73.06992432 64.33203125 74.21875 C64.82421143 74.87810547 65.3163916 75.53746094 65.82348633 76.21679688 C67 78 67 78 68 81 C48.91260915 83.68067703 48.91260915 83.68067703 42.89404297 79.55712891 C39.22454675 75.65925361 36.74859799 71.04972112 34.28076172 66.33154297 C32.25159123 62.63757076 29.75744949 59.31654656 27.25 55.9375 C26.4196755 54.78152462 25.59131511 53.62413391 24.765625 52.46484375 C24.18296875 51.65144531 23.6003125 50.83804688 23 50 C19.00144919 52.6089605 19.00144919 52.6089605 17.34057617 56.93261719 C17.32486572 58.04282227 17.30915527 59.15302734 17.29296875 60.296875 C17.24946289 62.10478516 17.24946289 62.10478516 17.20507812 63.94921875 C17.19927734 65.20347656 17.19347656 66.45773437 17.1875 67.75 C17.16236328 69.01972656 17.13722656 70.28945313 17.11132812 71.59765625 C17.05242247 74.73143695 17.02335821 77.86575277 17 81 C11.39 81 5.78 81 0 81 C0 54.27 0 27.54 0 0 Z " fill="#012039" transform="translate(439,650)"/>
<path d="M0 0 C4.70617846 3.29803057 8.07785266 6.4471299 10 12 C10.50716656 15.34428641 10.7715126 18.6183865 11 22 C5.72 22 0.44 22 -5 22 C-5.515625 20.741875 -6.03125 19.48375 -6.5625 18.1875 C-8.26464509 14.78922446 -8.93823803 14.03659969 -12.375 12 C-17.58301098 10.56330732 -20.38556135 10.28247171 -25.375 12.5 C-28.13901132 15.13239174 -28.4411015 15.49618264 -28.625 19.0625 C-28.41926654 22.93916687 -28.41926654 22.93916687 -26.25268555 24.65673828 C-23.92405584 26.04528501 -21.95358513 26.76303444 -19.33203125 27.4296875 C-18.43806641 27.66816406 -17.54410156 27.90664063 -16.62304688 28.15234375 C-14.76955138 28.62892008 -12.91539569 29.10293708 -11.06054688 29.57421875 C-1.45245572 32.14646363 6.15930471 35.71872846 12 44 C14.43870195 48.8774039 13.48040616 55.66031315 13 61 C11.88352305 64.27933811 10.35403903 66.48382052 8 69 C7.27296875 69.82564453 7.27296875 69.82564453 6.53125 70.66796875 C0.24596412 76.90703929 -8.46275998 79.18108878 -17.125 79.4375 C-26.71728651 79.05031135 -35.43753161 76.00706709 -43 70 C-48.1479255 63.76581499 -49 59.26953923 -49 51 C-43.72 51 -38.44 51 -33 51 C-32.46375 52.2375 -31.9275 53.475 -31.375 54.75 C-29.26220315 58.90197708 -27.34912017 61.03058709 -23 63 C-17.33017845 63.8070184 -12.36210231 62.82539653 -7 61 C-6.72251758 59.58845901 -6.47906484 58.17020201 -6.25 56.75 C-6.11078125 55.96109375 -5.9715625 55.1721875 -5.828125 54.359375 C-5.78043673 51.86631007 -5.78043673 51.86631007 -7.67797852 49.97314453 C-10.22862518 47.80572509 -12.13228292 47.0204882 -15.32421875 46.0703125 C-16.35353516 45.74933594 -17.38285156 45.42835938 -18.44335938 45.09765625 C-20.58605104 44.45523575 -22.72927159 43.81457634 -24.87304688 43.17578125 C-32.82424649 40.69195909 -40.97035458 37.76169408 -45.5625 30.375 C-48.05514331 24.33957199 -48.19994651 17.62195837 -46.15234375 11.44140625 C-42.64448395 4.3900135 -37.31212436 0.80661329 -30.5625 -2.875 C-21.20711417 -5.97489967 -8.25744317 -5.62061258 0 0 Z " fill="#022039" transform="translate(470,546)"/>
<path d="M0 0 C4.53075772 3.87101581 7.85932785 8.04315652 9 14 C9 16.31 9 18.62 9 21 C3.39 21 -2.22 21 -8 21 C-8.68359375 18.98177083 -9.3671875 16.96354167 -10.05078125 14.9453125 C-10.96335547 12.66005095 -10.96335547 12.66005095 -14 11 C-16.83403643 10.60657482 -16.83403643 10.60657482 -19.9375 10.625 C-20.97777344 10.59664062 -22.01804687 10.56828125 -23.08984375 10.5390625 C-26.67996798 11.10769963 -27.81970924 12.14448917 -30 15 C-30.56677755 18.40066527 -30.59389462 20.14658841 -28.60546875 23.00390625 C-24.72834718 25.97423477 -20.50372346 26.77365929 -15.8125 27.9375 C-5.4235205 30.52552825 3.83837039 33.71354394 10 43 C12.0996038 49.2988114 12.21060109 57.32245657 9.4375 63.4375 C4.50966886 71.59331809 -3.13649003 74.95583825 -11.98046875 77.58984375 C-21.50806069 79.52484791 -30.91030254 77.54493042 -39.25 72.75 C-44.4495871 69.23448969 -48.10492681 65.31905325 -50.375 59.4375 C-51 56 -51 56 -51 50 C-45.39 50 -39.78 50 -34 50 C-33.649375 51.2375 -33.29875 52.475 -32.9375 53.75 C-31.43003755 57.70445963 -29.84826464 59.56551527 -26.02734375 61.375 C-20.75112107 63.00158117 -16.51392682 62.67586019 -11.5 60.4375 C-8.75601845 58.12689501 -8.75601845 58.12689501 -7.8125 54.5625 C-7.67444767 50.95296426 -7.67444767 50.95296426 -9.875 48.4609375 C-14.05495523 45.16922275 -18.07957879 44.29036998 -23.1875 43.0625 C-41.23614255 38.30269017 -41.23614255 38.30269017 -46.5625 30.8125 C-49.55270094 24.96210687 -49.81802501 19.46554386 -49 13 C-46.02457894 5.28515825 -41.31740404 0.66411689 -34.08203125 -2.9609375 C-23.05716344 -7.47017049 -10.03125158 -6.25070481 0 0 Z " fill="#02213A" transform="translate(416,654)"/>
<path d="M0 0 C5.61 0 11.22 0 17 0 C17.01458252 1.63469238 17.02916504 3.26938477 17.04418945 4.95361328 C17.10221478 11.02561178 17.17944847 17.0972411 17.26245117 23.16894531 C17.29568038 25.79551191 17.3237185 28.42214957 17.34643555 31.04882812 C17.38001728 34.82713061 17.43233753 38.60478305 17.48828125 42.3828125 C17.49467117 43.55490265 17.5010611 44.7269928 17.50764465 45.93460083 C17.6312185 53.8898383 17.6312185 53.8898383 21 61 C24.67032326 64.4868071 27.57630842 65.28363464 32.5 65.4375 C37.00582007 65.24771682 40.3035973 64.77230202 44 62 C47.09507933 56.98383695 48.10651486 52.58798261 48.20532227 46.77246094 C48.22526749 45.73168396 48.24521271 44.69090698 48.26576233 43.61859131 C48.29083107 41.94340424 48.29083107 41.94340424 48.31640625 40.234375 C48.33718735 39.08584045 48.35796844 37.93730591 48.37937927 36.75396729 C48.44474993 33.08603889 48.50370194 29.41803907 48.5625 25.75 C48.60569707 23.26301346 48.64931175 20.77603413 48.69335938 18.2890625 C48.80041862 12.19278148 48.90172147 6.09642864 49 0 C54.61 0 60.22 0 66 0 C66.09955332 7.59476994 66.17179175 15.18915235 66.21972656 22.78442383 C66.23972885 25.36326726 66.26693956 27.942066 66.30175781 30.52075195 C66.35077817 34.24702039 66.37308374 37.97268447 66.390625 41.69921875 C66.41127014 42.8351799 66.43191528 43.97114105 66.45318604 45.14152527 C66.45590691 55.04935646 65.02718867 66.19894324 57.76171875 73.57421875 C48.78594705 80.83842422 39.32151988 82.77633279 28 82 C18.20118344 80.73563657 10.14208076 76.86083874 4 69 C-0.37859199 61.28094887 -0.53541375 53.80613722 -0.390625 45.1171875 C-0.38496521 43.82177032 -0.37930542 42.52635315 -0.37347412 41.19168091 C-0.35835107 37.78185981 -0.31918942 34.37274267 -0.2746582 30.9631958 C-0.23341339 27.47035235 -0.21540143 23.97739285 -0.1953125 20.484375 C-0.15267794 13.65593528 -0.08244169 6.82807412 0 0 Z " fill="#02213A" transform="translate(495,543)"/>
<path d="M0 0 C17.16 0 34.32 0 52 0 C52 4.95 52 9.9 52 15 C40.78 15 29.56 15 18 15 C18 20.94 18 26.88 18 33 C28.23 33 38.46 33 49 33 C49 37.95 49 42.9 49 48 C38.77 48 28.54 48 18 48 C18 53.94 18 59.88 18 66 C29.22 66 40.44 66 52 66 C52 70.95 52 75.9 52 81 C34.84 81 17.68 81 0 81 C0 54.27 0 27.54 0 0 Z " fill="#05243D" transform="translate(681,543)"/>
<path d="M0 0 C16.83 0 33.66 0 51 0 C51 4.95 51 9.9 51 15 C39.78 15 28.56 15 17 15 C17 20.94 17 26.88 17 33 C27.23 33 37.46 33 48 33 C48 37.95 48 42.9 48 48 C37.77 48 27.54 48 17 48 C17 53.94 17 59.88 17 66 C28.55 66 40.1 66 52 66 C52 70.95 52 75.9 52 81 C34.84 81 17.68 81 0 81 C0 54.27 0 27.54 0 0 Z " fill="#00223B" transform="translate(360,543)"/>
<path d="M0 0 C5.94 0 11.88 0 18 0 C19.04951979 2.8189953 20.09899824 5.63800597 21.1484375 8.45703125 C21.47695709 9.33949524 21.80547668 10.22195923 22.14395142 11.13116455 C23.95482733 15.99592347 25.76506938 20.86091707 27.57421875 25.72631836 C28.30729124 27.69775407 29.04036415 29.66918961 29.7734375 31.640625 C30.31843903 33.10635704 30.31843903 33.10635704 30.87445068 34.60169983 C32.75680891 39.66272176 34.64228901 44.72254348 36.53457642 49.77986145 C37.25797825 51.71377559 37.98008999 53.64816547 38.70166016 55.58276367 C39.55033107 57.85732302 40.401465 60.1309653 41.25537109 62.40356445 C41.62484863 63.39573975 41.99432617 64.38791504 42.375 65.41015625 C42.69210937 66.25715088 43.00921875 67.10414551 43.3359375 67.97680664 C44 70 44 70 44 72 C38.39 72 32.78 72 27 72 C23 60.25 23 60.25 23 58 C13.76 58 4.52 58 -5 58 C-5.66 60.97 -6.32 63.94 -7 67 C-7.66 68.65 -8.32 70.3 -9 72 C-14.61 72 -20.22 72 -26 72 C-20.36663926 55.61177658 -14.50084048 39.31943283 -8.5 23.0625 C-7.66908196 20.80671019 -6.83835198 18.55085109 -6.0078125 16.29492188 C-4.00736292 10.86248473 -2.00441456 5.43097537 0 0 Z " fill="#022039" transform="translate(492,756)"/>
<path d="M0 0 C5.42441277 4.44388044 9.10004178 9.64041082 11.35546875 16.3046875 C11.35546875 17.6246875 11.35546875 18.9446875 11.35546875 20.3046875 C-2.08605242 21.53597188 -2.08605242 21.53597188 -5.765625 18.62890625 C-6.72088432 17.21284433 -7.62873981 15.76354732 -8.484375 14.28515625 C-10.34547169 11.1081326 -12.15222902 10.33944372 -15.64453125 9.3046875 C-22.12186924 8.68015078 -28.1760246 8.34002018 -33.64453125 12.3046875 C-39.03584046 17.85003411 -40.82558336 23.11571962 -41.01953125 30.6796875 C-40.78817791 39.440938 -38.993327 46.10705355 -32.64453125 52.3046875 C-27.39105818 54.88286252 -22.3852637 54.85343398 -16.64453125 54.3046875 C-12.39514889 52.75945755 -9.55911687 50.7590112 -6.64453125 47.3046875 C-6.31453125 46.3146875 -5.98453125 45.3246875 -5.64453125 44.3046875 C-0.03453125 44.3046875 5.57546875 44.3046875 11.35546875 44.3046875 C8.94557772 53.37721845 4.322892 60.02312619 -3.5703125 65.2734375 C-14.42965981 70.67243503 -25.28163633 70.37538568 -36.4921875 66.62109375 C-46.33831435 62.50939022 -51.51188366 55.50740374 -55.67578125 45.93359375 C-59.62025065 34.81238142 -58.62620408 22.89843003 -53.64453125 12.3046875 C-48.66845684 3.90406751 -41.80818184 -1.44420864 -32.64453125 -4.6953125 C-21.63243791 -7.36437525 -9.64198252 -6.18112321 0 0 Z " fill="#022139" transform="translate(595.64453125,760.6953125)"/>
<path d="M0 0 C15.18 0 30.36 0 46 0 C46 4.62 46 9.24 46 14 C35.77 14 25.54 14 15 14 C15 19.28 15 24.56 15 30 C24.24 30 33.48 30 43 30 C43 34.29 43 38.58 43 43 C33.76 43 24.52 43 15 43 C15 48.28 15 53.56 15 59 C25.23 59 35.46 59 46 59 C46 63.29 46 67.58 46 72 C30.82 72 15.64 72 0 72 C0 48.24 0 24.48 0 0 Z " fill="#05243C" transform="translate(214,756)"/>
<path d="M0 0 C5.70654705 -1.35316924 11.48143574 -2.51166183 17 0 C22.38454937 5.58826843 25.68836913 12.90736153 28.96289062 19.86694336 C29.82354236 21.93245338 29.82354236 21.93245338 31 23 C31.38857178 22.3387915 31.77714355 21.67758301 32.17749023 20.99633789 C33.92925859 18.01746643 35.68334712 15.03996787 37.4375 12.0625 C38.04916016 11.02158203 38.66082031 9.98066406 39.29101562 8.90820312 C39.87431641 7.91884766 40.45761719 6.92949219 41.05859375 5.91015625 C41.86768188 4.53549194 41.86768188 4.53549194 42.69311523 3.13305664 C44 1 44 1 45 0 C47.69654854 -0.07319621 50.36691458 -0.09242537 53.0625 -0.0625 C53.82111328 -0.05798828 54.57972656 -0.05347656 55.36132812 -0.04882812 C57.24091871 -0.0370068 59.12046899 -0.01907078 61 0 C59.66323905 3.55952848 58.07939665 6.75327746 56.13671875 10.01953125 C55.30043945 11.43008789 55.30043945 11.43008789 54.44726562 12.86914062 C53.86654297 13.84044922 53.28582031 14.81175781 52.6875 15.8125 C52.11837891 16.77220703 51.54925781 17.73191406 50.96289062 18.72070312 C50.40150391 19.66494141 49.84011719 20.60917969 49.26171875 21.58203125 C48.71435059 22.50322754 48.16698242 23.42442383 47.60302734 24.37353516 C45.75451622 27.40221055 43.79143204 30.34310213 41.76098633 33.25268555 C40.74655288 35.58194451 41.23189049 36.60880216 42 39 C43.51383207 41.50349911 45.06197128 43.92962506 46.69140625 46.35546875 C47.15610825 47.05771072 47.62081024 47.7599527 48.09959412 48.48347473 C49.58188459 50.72175156 51.07174621 52.95485294 52.5625 55.1875 C54.0556245 57.43162272 55.54712129 59.67679626 57.03611755 61.92366028 C57.96268964 63.32101875 58.89188313 64.71664302 59.8238678 66.11039734 C63 70.88879825 63 70.88879825 63 72 C50.67713395 73.54035826 50.67713395 73.54035826 45 72 C40.95401854 68.2756656 39.12751787 64.00724523 37 59 C36.02024014 57.25928521 35.02316851 55.52805926 34 53.8125 C32 50.26644737 32 50.26644737 32 48 C31.34 48 30.68 48 30 48 C29.78472656 48.80824219 29.56945312 49.61648438 29.34765625 50.44921875 C27.61779831 55.00701836 25.12968233 58.76905586 22.4375 62.8125 C21.93025391 63.58787109 21.42300781 64.36324219 20.90039062 65.16210938 C17.18849649 70.81150351 17.18849649 70.81150351 16 72 C14.65732587 72.08631874 13.31025678 72.10706473 11.96484375 72.09765625 C11.15595703 72.09443359 10.34707031 72.09121094 9.51367188 72.08789062 C8.66353516 72.07951172 7.81339844 72.07113281 6.9375 72.0625 C6.08349609 72.05798828 5.22949219 72.05347656 4.34960938 72.04882812 C2.23304337 72.03700373 0.11651315 72.01906769 -2 72 C1.62486571 66.19187026 5.33450887 60.46600329 9.25390625 54.8515625 C9.96224609 53.82675781 10.67058594 52.80195312 11.40039062 51.74609375 C12.86419509 49.63303183 14.3411942 47.52906001 15.83007812 45.43359375 C16.52681641 44.41652344 17.22355469 43.39945313 17.94140625 42.3515625 C18.57763916 41.44229004 19.21387207 40.53301758 19.86938477 39.59619141 C21.27729018 37.07317973 21.27729018 37.07317973 20.41552734 34.54272461 C18.80140596 31.64326373 17.15406024 28.78890254 15.41015625 25.96484375 C15.06496445 25.40430801 14.71977264 24.84377228 14.36412048 24.26625061 C13.63725967 23.08773239 12.90851232 21.91037582 12.17797852 20.73413086 C11.06531542 18.94203462 9.95895733 17.14616705 8.85351562 15.34960938 C5.2599442 9.41753378 5.2599442 9.41753378 1.26733398 3.75610352 C0 2 0 2 0 0 Z " fill="#022038" transform="translate(269,756)"/>
<path d="M0 0 C5.61 0 11.22 0 17 0 C17 21.78 17 43.56 17 66 C27.89 66 38.78 66 50 66 C50 70.95 50 75.9 50 81 C33.5 81 17 81 0 81 C0 54.27 0 27.54 0 0 Z " fill="#00233C" transform="translate(547,650)"/>
<path d="M0 0 C5.61 0 11.22 0 17 0 C17 21.78 17 43.56 17 66 C27.89 66 38.78 66 50 66 C50 70.95 50 75.9 50 81 C33.5 81 17 81 0 81 C0 54.27 0 27.54 0 0 Z " fill="#01233C" transform="translate(608,650)"/>
<path d="M0 0 C19.47 0 38.94 0 59 0 C59 4.62 59 9.24 59 14 C51.74 14 44.48 14 37 14 C37 33.14 37 52.28 37 72 C31.72 72 26.44 72 21 72 C21 52.86 21 33.72 21 14 C14.07 14 7.14 14 0 14 C0 9.38 0 4.76 0 0 Z " fill="#06253D" transform="translate(613,756)"/>
<path d="M0 0 C19.47 0 38.94 0 59 0 C59 4.62 59 9.24 59 14 C51.74 14 44.48 14 37 14 C37 33.14 37 52.28 37 72 C32.05 72 27.1 72 22 72 C22 52.53 22 33.06 22 13 C14.74 13 7.48 13 0 13 C0 8.71 0 4.42 0 0 Z " fill="#022138" transform="translate(336,756)"/>
<path d="M0 0 C6.6923032 5.43749635 9.24397937 11.12182 10.25390625 19.55859375 C10.65364549 26.7925845 8.8723445 34.09427935 4.09375 39.65625 C-1.50052288 44.74954322 -5.90459571 45.8625263 -13.3984375 45.78515625 C-18.89637273 45.05044719 -22.60622997 41.86794819 -26.375 38 C-31.02632083 30.66522484 -31.02043256 21.83742816 -30 13.4375 C-28.51169232 7.96191222 -26.03350371 3.77986195 -21.5 0.3125 C-15.21136889 -3.04064107 -6.39719413 -3.21959442 0 0 Z " fill="#E1F1FC" transform="translate(723,770.5625)"/>
<path d="M0 0 C5.61 0 11.22 0 17 0 C17 26.73 17 53.46 17 81 C11.39 81 5.78 81 0 81 C0 54.27 0 27.54 0 0 Z " fill="#00233C" transform="translate(514,650)"/>
<path d="M0 0 C2.68125 -0.0825 5.3625 -0.165 8.125 -0.25 C8.95789551 -0.28641602 9.79079102 -0.32283203 10.64892578 -0.36035156 C15.90410752 -0.43809465 18.85351331 0.49628176 23 4 C25.81725233 8.2258785 25.79958384 12.03624688 25 17 C22.80977082 19.82424288 21.16982793 21.41508603 18 23 C16.62451844 23.08308638 15.24514204 23.10736016 13.8671875 23.09765625 C13.14128418 23.09515869 12.41538086 23.09266113 11.66748047 23.09008789 C10.74596191 23.08098389 9.82444336 23.07187988 8.875 23.0625 C5.94625 23.041875 3.0175 23.02125 0 23 C0 15.41 0 7.82 0 0 Z " fill="#E3F2FB" transform="translate(304,558)"/>
<path d="M0 0 C14.52863436 -0.44933921 14.52863436 -0.44933921 20 3 C22.23836335 5.37826106 22.95561168 6.92117094 23.08984375 10.18359375 C22.84337593 14.03228353 22.46938074 16.37415901 20.125 19.5 C16.03596976 22.38637428 12.10387485 22.1202151 7.3125 22.0625 C3.6928125 22.0315625 3.6928125 22.0315625 0 22 C0 14.74 0 7.48 0 0 Z " fill="#D8E9F4" transform="translate(775,769)"/>
<path d="M0 0 C2.701875 -0.103125 5.40375 -0.20625 8.1875 -0.3125 C9.02949951 -0.35802002 9.87149902 -0.40354004 10.73901367 -0.45043945 C14.85103077 -0.52619871 16.571815 -0.30838194 20.015625 2.171875 C23.16673621 6.66282877 22.88730719 10.716859 22 16 C20.25258702 18.62111947 19.24921878 19.56913519 16.3125 20.58203125 C10.99283311 21.5435251 5.37344729 21.04975414 0 21 C0 14.07 0 7.14 0 0 Z " fill="#E2F1FB" transform="translate(420,770)"/>
<path d="M0 0 C16.83 0 33.66 0 51 0 C51 4.95 51 9.9 51 15 C39.78 14.67 28.56 14.34 17 14 C17 13.67 17 13.34 17 13 C27.56 13 38.12 13 49 13 C49 9.37 49 5.74 49 2 C33.16 2 17.32 2 1 2 C1 27.41 1 52.82 1 79 C17.17 79 33.34 79 50 79 C50 75.04 50 71.08 50 67 C38.78 67 27.56 67 16 67 C16 66.67 16 66.34 16 66 C27.88 66 39.76 66 52 66 C52 70.95 52 75.9 52 81 C34.84 81 17.68 81 0 81 C0 54.27 0 27.54 0 0 Z " fill="#131D2E" transform="translate(360,543)"/>
<path d="M0 0 C5.61 0 11.22 0 17 0 C17 22.11 17 44.22 17 67 C16.34 66.67 15.68 66.34 15 66 C15 44.88 15 23.76 15 2 C10.71 2 6.42 2 2 2 C2 27.41 2 52.82 2 79 C11.57 79 21.14 79 31 79 C31 79.33 31 79.66 31 80 C20.77 80 10.54 80 0 80 C0 53.6 0 27.2 0 0 Z " fill="#011129" transform="translate(547,650)"/>
<path d="M0 0 C5.61 0 11.22 0 17 0 C17 26.73 17 53.46 17 81 C11.39 81 5.78 81 0 81 C0 54.27 0 27.54 0 0 Z M2 2 C2 27.41 2 52.82 2 79 C6.62 79 11.24 79 16 79 C16 53.59 16 28.18 16 2 C11.38 2 6.76 2 2 2 Z " fill="#041126" transform="translate(514,650)"/>
<path d="M0 0 C7.26 0 14.52 0 22 0 C21.67 1.32 21.34 2.64 21 4 C21 3.34 21 2.68 21 2 C14.73 2 8.46 2 2 2 C2 27.41 2 52.82 2 79 C6.62 79 11.24 79 16 79 C16 63.16 16 47.32 16 31 C16.33 31 16.66 31 17 31 C17 47.5 17 64 17 81 C11.39 81 5.78 81 0 81 C0 54.27 0 27.54 0 0 Z " fill="#041429" transform="translate(575,543)"/>
<path d="M0 0 C0.66 0 1.32 0 2 0 C3.34090793 3.7681831 4.6714179 7.53995521 6 11.3125 C6.3815625 12.38435547 6.763125 13.45621094 7.15625 14.56054688 C7.5171875 15.58857422 7.878125 16.61660156 8.25 17.67578125 C8.58515625 18.62364502 8.9203125 19.57150879 9.265625 20.5480957 C10 23 10 23 10 26 C4.06 26 -1.88 26 -8 26 C-5.70721651 17.19088448 -2.93923419 8.60858709 0 0 Z " fill="#DDECF5" transform="translate(500,775)"/>
<path d="M0 0 C7.38728102 -0.02526692 14.77455098 -0.0428316 22.16186523 -0.05493164 C24.67716895 -0.05997363 27.19246972 -0.06680703 29.70776367 -0.07543945 C33.31429775 -0.08751094 36.92079323 -0.09322949 40.52734375 -0.09765625 C42.22575661 -0.10539818 42.22575661 -0.10539818 43.95848083 -0.11329651 C45.51998619 -0.11340981 45.51998619 -0.11340981 47.11303711 -0.11352539 C48.03459091 -0.115746 48.95614471 -0.11796661 49.90562439 -0.12025452 C52 0 52 0 53 1 C53.09986975 3.84335048 53.13877881 6.65697163 53.125 9.5 C53.13080078 10.69689453 53.13080078 10.69689453 53.13671875 11.91796875 C53.12660767 17.87339233 53.12660767 17.87339233 52 19 C49.6243148 19.0883967 47.27791326 19.11530305 44.90234375 19.09765625 C43.83905602 19.09553383 43.83905602 19.09553383 42.75428772 19.09336853 C40.48198288 19.08775443 38.20977525 19.07519963 35.9375 19.0625 C34.40039204 19.05748681 32.86328255 19.05292359 31.32617188 19.04882812 C27.55071333 19.0386297 23.77546596 19.01905732 20 19 C20 23.62 20 28.24 20 33 C29.57 33 39.14 33 49 33 C49 33.33 49 33.66 49 34 C38.77 34 28.54 34 18 34 C18 28.39 18 22.78 18 17 C29.22 17 40.44 17 52 17 C52 12.05 52 7.1 52 2 C34.84 2 17.68 2 0 2 C0 1.34 0 0.68 0 0 Z " fill="#F4FBFD" transform="translate(359,541)"/>
<path d="M0 0 C11.22 0 22.44 0 34 0 C34.66 0.66 35.32 1.32 36 2 C24.78 2 13.56 2 2 2 C2 24.77 2 47.54 2 71 C6.29 71 10.58 71 15 71 C15 63.41 15 55.82 15 48 C15.33 48 15.66 48 16 48 C16 55.92 16 63.84 16 72 C10.72 72 5.44 72 0 72 C0 48.24 0 24.48 0 0 Z " fill="#0A1C31" transform="translate(759,756)"/>
<path d="M0 0 C5.61 0 11.22 0 17 0 C17.04513676 8.31002413 17.08185017 16.61995339 17.10362434 24.93006706 C17.11407343 28.78854797 17.128253 32.64694085 17.15087891 36.50537109 C17.1725674 40.22712192 17.18456014 43.94878794 17.18975449 47.67059708 C17.19345745 49.09241191 17.20068819 50.51422197 17.21146011 51.93600082 C17.22592119 53.92327114 17.22681646 55.91062631 17.22705078 57.89794922 C17.231492 59.03046112 17.23593323 60.16297302 17.24050903 61.32980347 C17 64 17 64 15 66 C15 44.88 15 23.76 15 2 C10.38 2 5.76 2 1 2 C1 27.41 1 52.82 1 79 C0.67 79 0.34 79 0 79 C0 52.93 0 26.86 0 0 Z " fill="#000F24" transform="translate(608,650)"/>
<path d="M0 0 C0.73283203 -0.00386719 1.46566406 -0.00773438 2.22070312 -0.01171875 C7.68413018 -0.00168491 7.68413018 -0.00168491 9.9375 1.125 C10.10506928 5.5624664 10.27140157 9.99997832 10.4375 14.4375 C10.48519531 15.70013672 10.53289062 16.96277344 10.58203125 18.26367188 C10.62714844 19.47216797 10.67226563 20.68066406 10.71875 21.92578125 C10.76064453 23.04122314 10.80253906 24.15666504 10.84570312 25.3059082 C10.90883905 27.24481914 10.9375 29.1850614 10.9375 31.125 C9.9475 32.115 8.9575 33.105 7.9375 34.125 C7.9375 23.565 7.9375 13.005 7.9375 2.125 C2.3275 2.125 -3.2825 2.125 -9.0625 2.125 C-9.0625 28.855 -9.0625 55.585 -9.0625 83.125 C-9.3925 83.125 -9.7225 83.125 -10.0625 83.125 C-10.3925 56.065 -10.7225 29.005 -11.0625 1.125 C-7.3401599 -0.11578003 -3.87453967 -0.02055459 0 0 Z " fill="#BAD0DD" transform="translate(448.0625,647.875)"/>
<path d="M0 0 C16.5 0 33 0 50 0 C50 4.95 50 9.9 50 15 C38.78 14.67 27.56 14.34 16 14 C16 13.67 16 13.34 16 13 C26.56 13 37.12 13 48 13 C48 9.37 48 5.74 48 2 C32.16 2 16.32 2 0 2 C0 1.34 0 0.68 0 0 Z " fill="#011129" transform="translate(361,543)"/>
<path d="M0 0 C5.61 0 11.22 0 17 0 C17 17.49 17 34.98 17 53 C16.67 53 16.34 53 16 53 C16 36.17 16 19.34 16 2 C11.38 2 6.76 2 2 2 C2 13.22 2 24.44 2 36 C1.67 36 1.34 36 1 36 C-0.00013174 31.85758584 -0.11516542 27.98519696 -0.09765625 23.73046875 C-0.0962413 23.04946609 -0.09482635 22.36846344 -0.09336853 21.66682434 C-0.08780298 19.50700353 -0.07525703 17.34728911 -0.0625 15.1875 C-0.05748054 13.71679838 -0.05291841 12.24609512 -0.04882812 10.77539062 C-0.03869877 7.18352049 -0.01911703 3.59187835 0 0 Z " fill="#000B1E" transform="translate(514,650)"/>
<path d="M0 0 C0.74886475 0.00523682 1.49772949 0.01047363 2.26928711 0.01586914 C3.07817383 0.0190918 3.88706055 0.02231445 4.72045898 0.02563477 C5.5705957 0.03401367 6.42073242 0.04239258 7.29663086 0.05102539 C8.15063477 0.05553711 9.00463867 0.06004883 9.88452148 0.06469727 C12.00108749 0.07652166 14.11761771 0.0944577 16.23413086 0.11352539 C16.56413086 0.77352539 16.89413086 1.43352539 17.23413086 2.11352539 C11.29413086 2.11352539 5.35413086 2.11352539 -0.76586914 2.11352539 C-0.76586914 19.27352539 -0.76586914 36.43352539 -0.76586914 54.11352539 C-1.75586914 54.60852539 -1.75586914 54.60852539 -2.76586914 55.11352539 C-2.79113519 47.44141337 -2.80870037 39.76931199 -2.82080078 32.09716797 C-2.82584291 29.4848592 -2.83267639 26.87255328 -2.84130859 24.26025391 C-2.8533795 20.51472271 -2.8590985 16.76922867 -2.86352539 13.02368164 C-2.86868668 11.84765884 -2.87384796 10.67163605 -2.87916565 9.4599762 C-2.87927895 7.83840858 -2.87927895 7.83840858 -2.87939453 6.18408203 C-2.88161514 5.22699844 -2.88383575 4.26991486 -2.88612366 3.28382874 C-2.73899661 0.62854121 -2.66500564 0.17132969 0 0 Z " fill="#E2ECF2" transform="translate(544.765869140625,540.886474609375)"/>
<path d="M0 0 C10.89 0 21.78 0 33 0 C33 4.95 33 9.9 33 15 C16.5 15 0 15 -17 15 C-17 14.67 -17 14.34 -17 14 C16.50178301 12.80611597 16.50178301 12.80611597 31 13 C31 9.04 31 5.08 31 1 C20.77 1 10.54 1 0 1 C0 0.67 0 0.34 0 0 Z " fill="#152A3F" transform="translate(564,716)"/>
<path d="M0 0 C0 4.29 0 8.58 0 13 C-9.57 13 -19.14 13 -29 13 C-29 12.67 -29 12.34 -29 12 C-20.09 12 -11.18 12 -2 12 C-2 8.7 -2 5.4 -2 2 C-10.91 2 -19.82 2 -29 2 C-29 1.67 -29 1.34 -29 1 C-24.54168888 0.83273548 -20.08334759 0.66628917 -15.625 0.5 C-14.35398438 0.45230469 -13.08296875 0.40460937 -11.7734375 0.35546875 C-9.95585937 0.28779297 -9.95585937 0.28779297 -8.1015625 0.21875 C-6.42054443 0.1559082 -6.42054443 0.1559082 -4.70556641 0.09179688 C-3.13764805 0.03859914 -1.56882057 0 0 0 Z " fill="#0A1629" transform="translate(257,786)"/>
<path d="M0 0 C3.80804847 3.6570988 7.10812243 7.49569942 10.3125 11.6875 C10.9940918 12.55858398 10.9940918 12.55858398 11.68945312 13.44726562 C15 17.7534657 15 17.7534657 15 20 C7.41 20 -0.18 20 -8 20 C-8.33 18.68 -8.66 17.36 -9 16 C-8.34 16.33 -7.68 16.66 -7 17 C-5.62451844 17.08308638 -4.24514204 17.10736016 -2.8671875 17.09765625 C-2.06152344 17.09443359 -1.25585938 17.09121094 -0.42578125 17.08789062 C0.41597656 17.07951172 1.25773437 17.07113281 2.125 17.0625 C3.39923828 17.05573242 3.39923828 17.05573242 4.69921875 17.04882812 C6.79950909 17.03702874 8.8997633 17.01909306 11 17 C10.66677734 16.5560791 10.33355469 16.1121582 9.99023438 15.65478516 C8.48854282 13.64850424 6.99420906 11.63685888 5.5 9.625 C4.71302734 8.57699219 4.71302734 8.57699219 3.91015625 7.5078125 C3.41386719 6.8375 2.91757812 6.1671875 2.40625 5.4765625 C1.94541016 4.85861816 1.48457031 4.24067383 1.00976562 3.60400391 C0 2 0 2 0 0 Z " fill="#112237" transform="translate(492,711)"/>
<path d="M0 0 C3.25813633 1.04725811 4.53606177 2.57016768 6.1875 5.4375 C8.94066071 10.84888484 9 12.46210513 9 19 C3.72 19 -1.56 19 -7 19 C-7 18.34 -7 17.68 -7 17 C-2.38 17 2.24 17 7 17 C5.89221996 10.90720976 4.7248017 6.92635064 1 2 C0.67 1.34 0.34 0.68 0 0 Z " fill="#06152C" transform="translate(416,656)"/>
<path d="M0 0 C0.33 0 0.66 0 1 0 C1 16.83 1 33.66 1 51 C0.67 51 0.34 51 0 51 C-0.02505615 49.71311279 -0.0501123 48.42622559 -0.07592773 47.1003418 C-0.17001572 42.33119546 -0.27023313 37.56219429 -0.37231445 32.79321289 C-0.41565803 30.72814324 -0.45733352 28.66303788 -0.49731445 26.59790039 C-0.55503083 23.63156365 -0.61872151 20.66540655 -0.68359375 17.69921875 C-0.70030624 16.7741301 -0.71701874 15.84904144 -0.73423767 14.8959198 C-0.75418289 14.03525406 -0.77412811 13.17458832 -0.79467773 12.2878418 C-0.81022202 11.53061325 -0.8257663 10.7733847 -0.84178162 9.99320984 C-0.93632323 7.79075185 -0.93632323 7.79075185 -2 5 C-1.0625 2.3125 -1.0625 2.3125 0 0 Z " fill="#F8FCFD" transform="translate(648,573)"/>
<path d="M0 0 C0.33 0 0.66 0 1 0 C1 4.95 1 9.9 1 15 C-9.23 15 -19.46 15 -30 15 C-30 14.67 -30 14.34 -30 14 C-20.43 13.67 -10.86 13.34 -1 13 C-0.67 8.71 -0.34 4.42 0 0 Z " fill="#16364E" transform="translate(407,576)"/>
<path d="M0 0 C0.33 0.66 0.66 1.32 1 2 C4.96 2 8.92 2 13 2 C13.33 1.34 13.66 0.68 14 0 C14.33 1.65 14.66 3.3 15 5 C10.05 5 5.1 5 0 5 C-0.33 3.68 -0.66 2.36 -1 1 C-0.67 0.67 -0.34 0.34 0 0 Z " fill="#10283D" transform="translate(592,776)"/>
<path d="M0 0 C0.33 0.66 0.66 1.32 1 2 C7.27 2 13.54 2 20 2 C20 2.66 20 3.32 20 4 C13.4 4 6.8 4 0 4 C-0.33 3.34 -0.66 2.68 -1 2 C-0.67 1.34 -0.34 0.68 0 0 Z " fill="#DCEAF2" transform="translate(266,826)"/>
<path d="M0 0 C0 0.66 0 1.32 0 2 C-6.6 2 -13.2 2 -20 2 C-20 1.34 -20 0.68 -20 0 C-17.04196565 -0.19421438 -14.08379837 -0.38066186 -11.125 -0.5625 C-10.28324219 -0.61857422 -9.44148438 -0.67464844 -8.57421875 -0.73242188 C-7.76855469 -0.78076172 -6.96289062 -0.82910156 -6.1328125 -0.87890625 C-5.01737061 -0.94960327 -5.01737061 -0.94960327 -3.87939453 -1.02172852 C-2 -1 -2 -1 0 0 Z " fill="#1F3144" transform="translate(351,622)"/>
<path d="M0 0 C0.33 1.32 0.66 2.64 1 4 C-2.96 4 -6.92 4 -11 4 C-11.33 3.01 -11.66 2.02 -12 1 C-6.06 0.505 -6.06 0.505 0 0 Z " fill="#172D42" transform="translate(626,620)"/>
<path d="M0 0 C5.28 0 10.56 0 16 0 C15.67 1.98 15.34 3.96 15 6 C14.67 4.68 14.34 3.36 14 2 C9.38 2 4.76 2 0 2 C0 1.34 0 0.68 0 0 Z " fill="#001732" transform="translate(609,650)"/>
<path d="M0 0 C5.28 0 10.56 0 16 0 C15.67 0.99 15.34 1.98 15 3 C9.72 3 4.44 3 -1 3 C-0.67 2.01 -0.34 1.02 0 0 Z " fill="#0F243A" transform="translate(314,756)"/>
<path d="M0 0 C0.66 0.33 1.32 0.66 2 1 C1.67 3.64 1.34 6.28 1 9 C0.34 9 -0.32 9 -1 9 C-1.2475 9.61875 -1.495 10.2375 -1.75 10.875 C-3.22047178 13.37480203 -4.41403076 13.83316022 -7 15 C-6.66226563 14.50371094 -6.32453125 14.00742187 -5.9765625 13.49609375 C-3.05398512 9.04465363 -1.18978233 5.19177746 0 0 Z " fill="#1A2C41" transform="translate(732,797)"/>
<path d="M0 0 C2.27795022 2.27795022 3.05219877 3.93787293 4 7 C3.625 9.3125 3.625 9.3125 3 11 C3 10.34 3 9.68 3 9 C2.34 9 1.68 9 1 9 C0.67 10.32 0.34 11.64 0 13 C0 8.71 0 4.42 0 0 Z " fill="#E8F3F7" transform="translate(592,572)"/>
<path d="M0 0 C6.27 0 12.54 0 19 0 C19 0.33 19 0.66 19 1 C13.06 1 7.12 1 1 1 C0.67 1.99 0.34 2.98 0 4 C-0.66 4 -1.32 4 -2 4 C-1.34 2.68 -0.68 1.36 0 0 Z " fill="#011026" transform="translate(482,651)"/>
<path d="M0 0 C0.33 0.66 0.66 1.32 1 2 C1.99 2.33 2.98 2.66 4 3 C3.67 4.32 3.34 5.64 3 7 C3.66 7.33 4.32 7.66 5 8 C4.01 8 3.02 8 2 8 C0.74335022 5.09399739 0 3.20395416 0 0 Z " fill="#02162D" transform="translate(515,813)"/>
<path d="M0 0 C0.33 0.99 0.66 1.98 1 3 C-1.97 5.475 -1.97 5.475 -5 8 C-5.66 7.67 -6.32 7.34 -7 7 C-4.69 4.69 -2.38 2.38 0 0 Z " fill="#58A6EA" transform="translate(568,360)"/>
</svg>
